Coordinates
version=1
nRows=26
nColumns=22
inDegrees=yes

Units are S.I. units (second, meters, Newtons, ...)
If the header above contains a line with 'inDegrees', this indicates whether rotational values are in degrees (yes) or radians (no).

endheader
time	pelvis_tilt	pelvis_list	pelvis_rotation	pelvis_tx	pelvis_ty	pelvis_tz	hip_flexion_r	hip_adduction_r	hip_rotation_r	knee_angle_r	ankle_angle_r	subtalar_angle_r	hip_flexion_l	hip_adduction_l	hip_rotation_l	knee_angle_l	ankle_angle_l	subtalar_angle_l	lumbar_extension	lumbar_bending	lumbar_rotation
      5.58000000	     -2.63498660	     -3.06945132	    -93.47650855	      0.78760783	      1.06193469	      0.50546913	      4.77594067	     11.86811682	    -25.86589827	    -11.09895657	     11.55031181	    -12.04197556	      5.73064031	     -8.21442495	      3.92682189	    -60.27205177	     -7.85661768	     15.50694272	     -5.20393381	      3.59016008	     -5.69374562
      5.59000000	     -2.63013358	     -3.09153640	    -94.61387137	      0.78318908	      1.06236774	      0.51335380	      3.94442731	     12.18309209	    -24.81156234	    -10.71868660	     11.64264777	    -12.09871781	      6.76644442	     -8.16133082	      4.33794956	    -60.55303837	     -6.79540538	     14.42648040	     -5.23816351	      3.41911420	     -5.26074185
      5.60000000	     -2.68374513	     -3.09349852	    -95.79286424	      0.77848454	      1.06275993	      0.52075269	      3.13899028	     12.54417188	    -23.62625934	    -10.33987953	     11.68184874	    -12.02049632	      7.82720712	     -8.21555649	      4.73125782	    -60.72331566	     -5.59422403	     13.29904143	     -5.34998806	      3.28307094	     -4.82084840
      5.61000000	     -2.76010448	     -3.17936394	    -96.91074171	      0.77381425	      1.06320344	      0.52824653	      2.18380654	     12.90914034	    -22.43047024	     -9.86483992	     11.70137714	    -11.97252365	      8.73134315	     -8.30302904	      5.11990927	    -60.62920889	     -4.50930973	     11.89470095	     -5.52459198	      3.15918890	     -4.48393095
      5.62000000	     -2.71386218	     -2.97379566	    -98.11180046	      0.76908963	      1.06315507	      0.53534358	      1.62864560	     13.13294795	    -21.22241377	     -9.53164457	     11.78445024	    -12.06999548	      9.94434903	     -8.30060221	      5.46813080	    -60.38341958	     -3.30596446	     10.49070843	     -5.37713615	      2.96220924	     -4.10822056
      5.63000000	     -2.56235535	     -2.95164638	    -99.40413751	      0.76444731	      1.06343824	      0.54238534	      0.90093905	     13.19184849	    -19.97120541	     -9.24464240	     11.95211754	    -12.02094718	     10.87574969	     -8.16749510	      5.64004144	    -59.87627851	     -2.01986874	      8.66112627	     -5.44127890	      2.61149632	     -3.58279881
      5.64000000	     -2.60296443	     -2.83283811	   -100.70160162	      0.75946491	      1.06354654	      0.54913495	      0.25295829	     13.45365843	    -18.67945565	     -8.95690499	     11.88887480	    -12.07982502	     11.85761643	     -8.26452731	      5.94294720	    -59.24396373	     -0.58647004	      7.47447059	     -5.43549599	      2.48561047	     -3.13790779
      5.65000000	     -2.50615849	     -2.44617745	   -102.03932640	      0.75475820	      1.06345737	      0.55553387	     -0.00262687	     13.55426948	    -17.21256198	     -8.83529805	     11.85854001	    -12.05287062	     13.12257262	     -8.25540827	      6.17277161	    -58.42232551	      0.76074977	      6.32484060	     -5.13148693	      2.31301458	     -2.68695481
      5.66000000	     -2.59161479	     -2.60764264	   -103.44515761	      0.75006635	      1.06373997	      0.56202751	     -0.92147474	     13.73020521	    -15.76555697	     -8.65611863	     11.83834736	    -12.27632181	     13.69968709	     -8.35626651	      6.30820975	    -57.46912641	      2.11238019	      5.07097516	     -5.52352885	      2.23948725	     -2.12659656
      5.67000000	     -2.45209051	     -2.42890081	   -104.90179217	      0.74523843	      1.06368383	      0.56841538	     -1.40415251	     13.70551462	    -14.12764546	     -8.57783399	     11.99425472	    -12.23869205	     14.60013534	     -8.29816327	      6.39482017	    -56.36228094	      3.58400530	      4.38319181	     -5.43684812	      1.97416513	     -1.47318460
      5.68000000	     -2.31050919	     -2.28743558	   -106.38588003	      0.74045680	      1.06377501	      0.57491132	     -1.91718160	     13.64297320	    -12.54078946	     -8.49091557	     11.93437220	    -12.58572326	     15.37466842	     -8.26630042	      6.36014813	    -55.01615848	      4.86484276	      3.65650580	     -5.36883334	      1.73696224	     -0.91662368
      5.69000000	     -1.99850195	     -2.29738086	   -107.80402282	      0.73634050	      1.06390403	      0.58146898	     -2.58019657	     13.34180212	    -10.99726359	     -8.28118681	     12.16588783	    -12.74589379	     15.99441512	     -7.95070997	      6.29141982	    -53.48198193	      5.70060232	      2.89301972	     -5.38146608	      1.34516253	     -0.43511731
      5.70000000	     -1.77642220	     -2.23166801	   -109.25105214	      0.73201004	      1.06387539	      0.58791469	     -3.13720196	     13.11492367	     -9.50039820	     -8.18541732	     12.35474233	    -12.79468356	     16.63723551	     -7.75912441	      6.19360017	    -51.87572718	      6.58059412	      2.45587314	     -5.33232924	      1.06728834	      0.11005414
      5.71000000	     -1.62572308	     -2.14809326	   -110.69815606	      0.72733325	      1.06382815	      0.59419462	     -3.62886971	     12.94931243	     -8.06343151	     -8.20487947	     12.57659118	    -12.75999557	     17.19533565	     -7.66266150	      6.03973912	    -50.03822606	      6.59445637	      0.99789422	     -5.34406751	      0.79619079	      0.63530098
      5.72000000	     -1.49346304	     -2.01729829	   -112.16616555	      0.72262935	      1.06371775	      0.60025998	     -4.00009678	     12.78880135	     -6.72798091	     -8.34754640	     12.69167545	    -12.69788249	     17.81007186	     -7.68372992	      5.70197947	    -48.23296540	      7.35464809	      0.45466816	     -5.25408384	      0.59999812	      1.19368560
      5.73000000	     -1.43713256	     -1.96089802	   -113.47058068	      0.71794208	      1.06360279	      0.60627555	     -4.48070750	     12.69212891	     -5.69179647	     -8.44334491	     12.83984869	    -12.53790424	     18.37434876	     -7.76237162	      5.34017382	    -46.42868041	      7.79220256	     -0.20859417	     -5.19984611	      0.52995273	      1.36908288
      5.74000000	     -1.36744531	     -1.78953012	   -114.81148059	      0.71337460	      1.06334615	      0.61225181	     -4.76785775	     12.57111215	     -4.51357833	     -8.68004685	     12.95509749	    -12.51287512	     18.95068652	     -7.82630790	      5.04830044	    -44.45549570	      8.43245308	     -0.48526314	     -5.09404089	      0.46704641	      1.76099624
      5.75000000	     -1.26149192	     -1.76374135	   -116.14452690	      0.70890033	      1.06311376	      0.61837337	     -5.22879180	     12.34777868	     -3.25930725	     -8.82029401	     13.25177243	    -12.38448639	     19.32202477	     -7.75775540	      4.62732572	    -42.35396244	      8.89495413	     -0.76235278	     -5.11923573	      0.32595872	      2.10804341
      5.76000000	     -1.11203886	     -1.74710112	   -117.39542797	      0.70460716	      1.06289097	      0.62468665	     -5.66335639	     12.07484679	     -2.04592403	     -8.95417383	     13.42213280	    -12.19962772	     19.66130364	     -7.59860404	      4.19290152	    -40.14502137	      9.29964809	     -0.71913716	     -5.06648413	      0.12046979	      2.44963597
      5.77000000	     -0.91239679	     -1.78924869	   -118.55280737	      0.70073990	      1.06267722	      0.63106083	     -6.10322710	     11.69762106	     -1.05028666	     -9.08163716	     13.73223953	    -12.12962241	     19.96738097	     -7.29383194	      3.80161794	    -37.95257015	      9.60016058	     -0.66704277	     -5.07839771	     -0.08642818	      2.62086698
      5.78000000	     -0.71212352	     -1.79855248	   -119.65052283	      0.69673554	      1.06242550	      0.63751033	     -6.52588807	     11.34684336	     -0.16385268	     -9.15541832	     13.87174650	    -11.73109682	     20.26053152	     -6.93701340	      3.56479356	    -35.68974076	      9.47210959	     -0.07890942	     -5.03457590	     -0.27801042	      2.76407544
      5.79000000	     -0.48014047	     -1.84064349	   -120.59246369	      0.69292797	      1.06204718	      0.64423669	     -6.96146200	     10.94706664	      0.52704131	     -9.22089834	     14.21208591	    -12.08823160	     20.49586822	     -6.47580933	      3.37281580	    -33.34963315	      9.29483543	      0.60579778	     -4.98642454	     -0.51898128	      2.86586535
      5.80000000	     -0.21919380	     -1.86954531	   -121.43225709	      0.68934187	      1.06160951	      0.65105264	     -7.28912698	     10.51633110	      1.14377895	     -9.39113562	     14.60936777	    -11.99931022	     20.74923754	     -5.94937929	      3.15369583	    -30.99215193	      8.85271388	      1.60689521	     -4.88474711	     -0.74784055	      2.82662850
      5.81000000	     -0.02274754	     -1.93620134	   -122.35906426	      0.68539053	      1.06122979	      0.65774844	     -7.65667934	     10.10350499	      1.87407576	     -9.61416717	     14.94397421	    -11.82674058	     20.86085072	     -5.56679871	      2.54271429	    -28.58428878	      8.45517480	      2.99428567	     -4.85846133	     -0.95008601	      2.85674619
      5.82000000	      0.17041841	     -2.00195233	   -123.08810494	      0.68171526	      1.06088211	      0.66457018	     -7.99537728	      9.70165833	      2.29556669	     -9.83199056	     15.25961396	    -11.69930451	     21.01044565	     -5.05755634	      2.23944774	    -26.28953955	      7.76420003	      4.51604050	     -4.83005351	     -1.16003394	      2.71652231
      5.83000000	      0.42940098	     -2.12389919	   -123.93664359	      0.67809257	      1.06038229	      0.67135385	     -8.28957851	      9.19055110	      2.86609365	    -10.14018476	     15.64536827	    -11.51551266	     21.07559757	     -4.51264898	      1.65127008	    -23.98596874	      6.98067717	      5.65003225	     -4.83259779	     -1.42356106	      2.76114469
